HIERARCHY
ROOT Hips
{
	OFFSET 0.000000 0.000000 0.000000
	CHANNELS 6 Xposition Yposition Zposition Zrotation Yrotation Xrotation 
	JOINT LHipJoint
	{
		OFFSET 0.000000 0.000000 0.000000
		CHANNELS 3 Zrotation Yrotation Xrotation
		JOINT LeftUpLeg
		{
			OFFSET 1.363060 -1.794630 0.839290
			CHANNELS 3 Zrotation Yrotation Xrotation
			JOINT LeftLeg
			{
				OFFSET 2.448110 -6.726130 0.000000
				CHANNELS 3 Zrotation Yrotation Xrotation
				JOINT LeftFoot
				{
					OFFSET 2.562200 -7.039590 0.000000
					CHANNELS 3 Zrotation Yrotation Xrotation
					JOINT LeftToeBase
					{
						OFFSET 0.157640 -0.433110 2.322550
						CHANNELS 3 Zrotation Yrotation Xrotation
						End Site
						{
							OFFSET 0.000000 0.000000 0.000000
						}
					}
				}
			}
		}
	}
	JOINT RHipJoint
	{
		OFFSET 0.000000 0.000000 0.000000
		CHANNELS 3 Zrotation Yrotation Xrotation
		JOINT RightUpLeg
		{
			OFFSET -1.305520 -1.794630 0.839290
			CHANNELS 3 Zrotation Yrotation Xrotation
			JOINT RightLeg
			{
				OFFSET -2.542530 -6.985550 0.000000
				CHANNELS 3 Zrotation Yrotation Xrotation
				JOINT RightFoot
				{
					OFFSET -2.568260 -7.056230 0.000000
					CHANNELS 3 Zrotation Yrotation Xrotation
					JOINT RightToeBase
					{
						OFFSET -0.164730 -0.452590 2.363150
						CHANNELS 3 Zrotation Yrotation Xrotation
						End Site
						{
							OFFSET 0.000000 0.000000 0.000000
						}
					}
				}
			}
		}
	}
	JOINT LowerBack
	{
		OFFSET 0.000000 0.000000 0.000000
		CHANNELS 3 Zrotation Yrotation Xrotation
		JOINT Spine
		{
			OFFSET 0.028270 2.035590 -0.193380
			CHANNELS 3 Zrotation Yrotation Xrotation
			JOINT Spine1
			{
				OFFSET 0.056720 2.048850 -0.042750
				CHANNELS 3 Zrotation Yrotation Xrotation
				JOINT Neck
				{
					OFFSET 0.000000 0.000000 0.000000
					CHANNELS 3 Zrotation Yrotation Xrotation
					JOINT Neck1
					{
						OFFSET -0.054170 1.746240 0.172020
						CHANNELS 3 Zrotation Yrotation Xrotation
						JOINT Head
						{
							OFFSET 0.104070 1.761360 -0.123970
							CHANNELS 3 Zrotation Yrotation Xrotation
							End Site
							{
								OFFSET 0.000000 0.000000 0.000000
							}
						}
					}
				}
				JOINT LeftShoulder
				{
					OFFSET 0.000000 0.000000 0.000000
					CHANNELS 3 Zrotation Yrotation Xrotation
					JOINT LeftArm
					{
						OFFSET 3.362410 1.200890 -0.311210
						CHANNELS 3 Zrotation Yrotation Xrotation
						JOINT LeftForeArm
						{
							OFFSET 4.983000 -0.000000 -0.000000
							CHANNELS 3 Zrotation Yrotation Xrotation
							JOINT LeftHand
							{
								OFFSET 3.483560 -0.000000 -0.000000
								CHANNELS 3 Zrotation Yrotation Xrotation
								JOINT LeftFingerBase
								{
									OFFSET 0.000000 0.000000 0.000000
									CHANNELS 3 Zrotation Yrotation Xrotation
									JOINT LeftHandIndex1
									{
										OFFSET 0.715260 -0.000000 -0.000000
										CHANNELS 3 Zrotation Yrotation Xrotation
										End Site
										{
											OFFSET 0.000000 0.000000 0.000000
										}
									}
								}
								JOINT LThumb
								{
									OFFSET 0.000000 0.000000 0.000000
									CHANNELS 3 Zrotation Yrotation Xrotation
									End Site
									{
										OFFSET 0.000000 0.000000 0.000000
									}
								}
							}
						}
					}
				}
				JOINT RightShoulder
				{
					OFFSET 0.000000 0.000000 0.000000
					CHANNELS 3 Zrotation Yrotation Xrotation
					JOINT RightArm
					{
						OFFSET -3.136600 1.374050 -0.404650
						CHANNELS 3 Zrotation Yrotation Xrotation
						JOINT RightForeArm
						{
							OFFSET -5.241900 -0.000000 -0.000000
							CHANNELS 3 Zrotation Yrotation Xrotation
							JOINT RightHand
							{
								OFFSET -3.444170 -0.000000 -0.000000
								CHANNELS 3 Zrotation Yrotation Xrotation
								JOINT RightFingerBase
								{
									OFFSET 0.000000 0.000000 0.000000
									CHANNELS 3 Zrotation Yrotation Xrotation
									JOINT RightHandIndex1
									{
										OFFSET -0.622530 -0.000000 -0.000000
										CHANNELS 3 Zrotation Yrotation Xrotation
										End Site
										{
											OFFSET 0.000000 0.000000 0.000000
										}
									}
								}
								JOINT RThumb
								{
									OFFSET 0.000000 0.000000 0.000000
									CHANNELS 3 Zrotation Yrotation Xrotation
									End Site
									{
										OFFSET 0.000000 0.000000 0.000000
									}
								}
							}
						}
					}
				}
			}
		}
	}
}
MOTION
Frames: 5
Frame Time: 0.008333
3.680761 17.319669 1.034951 48.662841 -86.846681 -34.963393 -11.453112 1.055451 1.054841 -7.774941 13.067081 -19.213549 -2.776521 -1.369846 -0.982268 0.295436 3.797241 4.675379 1.096500 -0.000000 -35.796000 9.510523 -1.875915 2.064782 1.328516 -6.688285 -13.851434 2.054198 1.372052 -3.292336 -1.186787 -7.344096 2.910613 -2.119900 0.000000 -39.341700 0.075300 3.682724 -3.735628 0.468732 3.810979 -4.304792 1.743857 3.874712 -4.538261 -7.136137 4.115747 0.214979 -1.480994 -0.240130 2.239202 0.000000 0.000000 0.000000 5.042818 -0.454823 -3.212313 -91.800151 -13.245854 30.097479 179.462685 -47.094420 179.987129 -3.606551 -9.280478 0.371898 0.493372 1.138951 -0.000000 0.000000 0.000000 0.000000 0.000000 0.000000 0.000000 -15.875557 10.686785 2.062312 -14.262727 72.275239 -108.910388 -3.922575 7.011362 -0.086966 -13.934635 6.916796 -0.918168 0.213743 -0.468986 -0.000000 0.000000 0.000000 0.000000 0.000000 0.000000 0.000000 
3.674075 17.322796 1.031511 55.209286 -87.326277 -41.482464 -11.447594 1.137693 1.063235 -7.721489 13.468950 -19.320274 -2.775355 -1.354200 -1.037984 0.307584 3.830863 4.703569 1.100600 0.000000 -35.793600 9.514400 -1.851317 2.117246 1.473712 -6.589353 -13.998708 2.121670 1.408288 -3.296839 -1.099637 -6.949336 3.044677 -2.054800 -0.000000 -39.344100 0.049572 3.808794 -3.847816 0.512839 3.941890 -4.289809 1.975599 3.989031 -4.386294 -7.354512 4.216754 0.017066 -1.405130 -0.231996 2.185614 0.000000 0.000000 0.000000 5.319755 -0.394541 -3.287736 -92.066258 -12.577570 29.931428 179.194165 -46.731400 179.981893 -3.541253 -9.365349 0.369826 0.508154 1.131159 -0.000000 0.000000 0.000000 0.000000 0.000000 0.000000 0.000000 -16.362316 10.838867 2.419711 -16.012086 72.201800 -114.930676 -3.893109 5.445699 -0.085150 -13.848547 8.094771 -1.058539 0.201439 -0.476829 -0.000000 0.000000 0.000000 0.000000 0.000000 0.000000 0.000000 
3.665013 17.325202 1.030555 55.734104 -87.489960 -42.002950 -11.458198 1.151454 1.059715 -7.633738 13.679011 -19.301404 -2.778253 -1.359437 -1.169127 0.299333 3.773284 4.784817 1.094300 -0.000001 -35.824800 9.506322 -1.874164 2.134769 1.615230 -6.617141 -13.966000 2.157108 1.425515 -3.431522 -1.056615 -6.764137 3.171369 -2.029700 0.000000 -39.347400 0.025641 3.855987 -3.882006 0.480725 3.991434 -4.361787 1.904268 4.055389 -4.662949 -7.162938 3.799739 0.114653 -1.401341 -0.234485 2.219450 0.000000 0.000000 0.000000 5.863086 -0.535342 -3.208079 -92.267985 -11.853346 29.736251 179.019407 -46.512807 179.978137 -3.432449 -9.421992 0.362255 0.514309 1.131388 -0.000000 0.000000 0.000000 0.000000 0.000000 0.000000 0.000000 -16.398172 10.613706 1.694101 -10.192275 73.052254 -110.094425 -3.894059 5.776692 -0.084145 -13.345451 9.049297 -1.134545 0.180783 -0.491576 -0.000000 0.000000 0.000000 0.000000 0.000000 0.000000 0.000000 
3.654502 17.326739 1.032055 48.931573 -87.272817 -35.119251 -11.508643 1.051123 0.974871 -7.535613 13.661589 -19.188403 -2.790082 -1.386554 -1.356904 0.271099 3.633940 4.913722 1.078900 0.000000 -35.886000 9.463934 -1.931363 2.060969 1.729473 -6.765249 -13.800308 2.151385 1.413993 -3.687347 -1.063814 -6.805166 3.275967 -2.045500 0.000000 -39.350300 0.041082 3.812586 -3.653598 0.334661 3.942038 -4.587258 1.386268 4.077875 -5.737638 -6.619010 2.930736 0.442299 -1.486070 -0.248283 2.327595 0.000000 0.000000 0.000000 6.714054 -0.672031 -2.927671 -92.339099 -10.970020 29.575718 179.004653 -46.373501 179.976265 -3.286980 -9.456533 0.349440 0.507476 1.137889 -0.000000 0.000000 0.000000 0.000000 0.000000 0.000000 0.000000 -16.154543 9.817357 -0.584960 7.910409 74.471957 -89.459667 -4.519304 8.253031 -0.085359 -12.524147 9.768965 -1.145551 0.147730 -0.513289 -0.000000 0.000000 0.000000 0.000000 0.000000 0.000000 0.000000 
3.642907 17.327079 1.035592 37.968632 -86.825167 -23.603184 -11.478293 0.835094 0.597012 -7.394841 13.386018 -19.164749 -2.827266 -1.422844 -1.629945 0.238612 3.450905 5.058198 1.055100 0.000000 -35.978500 9.507784 -1.857873 1.674418 1.875407 -6.936744 -13.663260 2.116735 1.401566 -4.052836 -1.104854 -7.039564 3.361059 -2.099301 -0.000000 -39.355000 0.624745 3.179884 -2.593819 0.222503 3.237270 -4.961506 0.387612 3.468384 -7.696998 -6.367734 1.831361 -0.357259 -1.816348 -0.255797 2.114270 0.000000 0.000000 0.000000 7.776496 1.243658 -2.668859 -92.100671 -9.436315 29.422589 178.999550 -45.371563 179.971415 -3.114691 -9.522934 0.332857 0.496205 1.103880 -0.000000 0.000000 0.000000 0.000000 0.000000 0.000000 0.000000 -15.367220 5.993744 -2.835509 44.149155 79.265164 -48.094794 -8.400971 12.804506 -0.110991 -12.050350 9.748655 -1.099941 0.057496 -0.581355 -0.000000 0.000000 0.000000 0.000000 0.000000 0.000000 0.000000 
